<?xml version="1.0" encoding="utf-8"?>
<!-- Svg Vector Icons : http://www.onlinewebfonts.com/icon -->
<!DOCTYPE svg PUBLIC "-//W3C//DTD SVG 1.1//EN" "http://www.w3.org/Graphics/SVG/1.1/DTD/svg11.dtd">
<svg version="1.1" xmlns="http://www.w3.org/2000/svg" xmlns:xlink="http://www.w3.org/1999/xlink" x="0px" y="0px" viewBox="0 0 1000 1000" enable-background="new 0 0 1000 1000" xml:space="preserve">
<metadata> Svg Vector Icons : http://www.onlinewebfonts.com/icon </metadata>
<g><g><path d="M987.1,528.2c-1.6-27.2-9.1-130.5-30.2-187c-0.7-1.9-1.8-3.7-3.2-5.1c-4.3-4.3-10.5-5.3-15.7-3.1c-4.5,2-10.5,3-17.8,3c-18.4,0-37.5-6.5-37.7-6.5c-6-2.1-12.7,0.1-16.3,5.4c-21.6,32-66.4,83.8-94.5,86.2c-4.7,0.4-9.5,0.6-14.2,0.6c-62.9,0-108.2-37.3-120-48.2c-3.3-22-19.6-105.3-78-122.6c-2.2-0.7-4.6-1.1-7-1.1c-11.1,0-28.4,6.3-63.9,55.4c-14.4,19.9-26.6,39.6-31.2,47.3l-234.9,130c-5.9,3.3-12.3,5.7-18.9,7.1l-158,34.1c-21.7,4.7-36.6,24.2-35.3,46.4c0,0,3.7,59.9,4.3,61.3c2,4.8,52,118.3,315.3,118.3h608c14.1,0,27.8-5.2,37.7-15.2c9.6-9.8,14.8-22.8,14.6-36.5l-2.5-158.3C987.5,539.9,987.3,531.8,987.1,528.2z M200.3,534.4c2.7,8.2,9.5,19.5,26.9,26.6c13.5,5.5,29.5,8.4,46.4,11.5c25.2,4.6,51.1,9.4,70.3,22.6c-2.8,3.3-6.4,5.7-10.7,6.9c-6.1,1.8-12.5,0.9-17.9-2.4l-14.9-9.1c-19.6-12-42.2-18.3-65.1-18.1c-1.3,0-2.6,0-3.9,0c-69.8,0-122.2-10.1-147.7-27.9l114.6-24.7C198.2,524.4,198.7,529.4,200.3,534.4z M360.6,572.3c-24.3-17-54.6-22.5-81.9-27.5c-15.5-2.8-30.1-5.5-40.8-9.9c-5.9-2.4-9.5-5.5-10.7-9.1c-1.6-4.7,0.2-10.7,1.9-14.5l69.7-38.6l26.9,46.8c2.6,4.5,7.4,7.1,12.2,7.1c2.4,0,4.8-0.6,7-1.9c6.8-3.9,9.1-12.5,5.2-19.2L323.4,459l15.3-8.5l27.3,47.6c2.6,4.5,7.4,7.1,12.2,7.1c2.4,0,4.8-0.6,7-1.9c6.8-3.9,9.1-12.5,5.2-19.2l-27.1-47.2l14.9-8.3l25.4,44.3c2.6,4.5,7.4,7.1,12.2,7.1c2.4,0,4.8-0.6,7-1.9c6.8-3.9,9.1-12.5,5.2-19.2L402.9,415l17.3-9.6l25.6,44.6c2.6,4.5,7.4,7.1,12.2,7.1c2.4,0,4.8-0.6,7-1.9c6.8-3.9,9.1-12.5,5.2-19.2l-25.4-44.3l18.3-10.1c9.4,12.4,27.4,33.2,55.4,53.4c36,26,95.7,55.6,180.6,55.6c7.4,0,15.1-0.2,22.9-0.7c16.5-1,32.5-2.3,48-3.8c-32.5,28.5-47.4,51.9-53.4,63.2l-120.2,29.4c-50.1,12.2-102,9.1-150.2-9.1l-24-9.1C400.5,552.3,376.8,557.4,360.6,572.3z M946.4,416.1c5.8,34.1,9.2,69.8,11.1,93.3c-18.4-7.6-39-9.4-58.7-4.6l-141.5,34.6C781.1,510,834.3,461.1,946.4,416.1z M774.1,449.2c43.2-3.8,92.1-66.1,109.5-90.1c9,2.3,22.6,5.1,36.5,5.1c5.1,0,9.9-0.4,14.4-1.1c2.3,7.7,4.5,16.1,6.4,24.9c-42.8,16.9-77.8,34.5-106.4,51.7c-14.3,8.6-30.3,14.4-46.9,16.3c-21.3,2.5-43.8,4.5-67.3,5.9c-70.8,4.3-132.8-12.1-184.2-48.9c-8.5-6-15.9-12.2-22.4-18c11.4-14.6,27.5-31,38.6-33.8c10.8-2.7,40.8,13.1,62.4,29.8c7.6,7.6,61.6,59,142.7,59C763,450,768.6,449.7,774.1,449.2z M552.1,278.3c23.7,7.6,38,34,45.9,55c2.1,5.5,3.8,11,5.3,16.2c-18.2-10.4-40.8-19.9-57.8-15.6c-19.9,5-39.8,26.2-51.6,40.9c-4.1-4.8-7.3-8.9-9.6-12C510.5,319.4,541,281.4,552.1,278.3z M50.7,551.7c18.9,24.2,66.1,48.9,180.5,48.9c1.4,0,2.9,0,4.3,0c17.7-0.2,35.1,4.7,50.2,14l14.9,9.1c8,4.9,17.2,7.4,26.4,7.4c4.7,0,9.5-0.7,14.1-2c13.6-4,25-13.6,31.3-26.3c7.3-14.9,24.5-21.7,40-15.8l24,9.1c53.6,20.2,111.3,23.7,166.9,10.1l302.2-73.9c18.6-4.6,38.4-0.7,53.9,10.2l0.9,60.1c-61.9-0.5-299.4-0.8-390.3,25.8c-95.6,27.9-160.7,29.2-303.3,31.9l-20.4,0.4c-79.1,1.6-132-10.9-162.4-21.5c-22.5-7.9-36.3-16-42.9-20.4l-2.8-50.1C37.8,560.7,43,553.7,50.7,551.7z M955.3,715c-4.3,4.4-10.1,6.8-16.2,6.8H329.6c-124.9,0-196.6-26.8-235.2-49.8c33.3,9.4,78.7,17,138.4,17c4.6,0,34.5-0.5,34.5-0.5c145.2-2.8,211.5-4.1,310.7-33.1c86.4-25.2,323.4-25.1,382.8-24.7l1.1,67.9C961.9,704.8,959.6,710.6,955.3,715z"/><path d="M755.7,654.5h-95.5c-7.8,0-14.1,6.3-14.1,14.1c0,7.8,6.3,14.1,14.1,14.1h95.5c7.8,0,14.1-6.3,14.1-14.1C769.7,660.8,763.4,654.5,755.7,654.5z"/><path d="M921.7,654.5h-95.5c-7.8,0-14.1,6.3-14.1,14.1c0,7.8,6.3,14.1,14.1,14.1h95.5c7.8,0,14.1-6.3,14.1-14.1C935.8,660.8,929.5,654.5,921.7,654.5z"/><circle cx="558.3" cy="394.5" r="15.7"/><circle cx="595.9" cy="414.8" r="15.7"/></g><g></g><g></g><g></g><g></g><g></g><g></g><g></g><g></g><g></g><g></g><g></g><g></g><g></g><g></g><g></g></g>
</svg>